# xmcd CD database file
#
# Track frame offsets:
#	150
#	9345
#	46785
#	55385
#	84012
#	101815
#	115797
#	143280
#	171797
#	177065
#	185300
#	223635
#	244345
#
# Disc length: 3723 seconds
#
# Revision: 0
# Processed by: cddbd v1.5.1PL0 Copyright (c) Steve Scherf et al.
# Submitted via: CDex 1.51
#
DISCID=9c0e890d
DTITLE=Ravi Coltrane - In Flux
DYEAR=2005
DGENRE=Jazz
TTITLE0=The Message Part I
TTITLE1=Coincide
TTITLE2=Variations III
TTITLE3=Away
TTITLE4=Leaving Avignon
TTITLE5=Blending Times
TTITLE6=Dear Alice
TTITLE7=Angular Realms
TTITLE8=Scram Vamp
TTITLE9=Variations I
TTITLE10=United
TTITLE11=For Zoe
TTITLE12=Three Card Molly
EXTD=YEAR: 2005
EXTT0=
EXTT1=
EXTT2=
EXTT3=
EXTT4=
EXTT5=
EXTT6=
EXTT7=
EXTT8=
EXTT9=
EXTT10=
EXTT11=
EXTT12=
PLAYORDER=
